<?xml version="1.0" standalone="no"?>
<!DOCTYPE svg PUBLIC "-//W3C//DTD SVG 1.1//EN" "http://www.w3.org/Graphics/SVG/1.1/DTD/svg11.dtd">
<svg xmlns:xlink="http://www.w3.org/1999/xlink" width="52.202ex" height="7.176ex" style="vertical-align: -3.338ex;" viewBox="0 -1652.5 22475.9 3089.6" xmlns="http://www.w3.org/2000/svg">
<defs>
<path stroke-width="10" id="E1-MJMATHI-49" d="M43 1Q26 1 26 10Q26 12 29 24Q34 43 39 45Q42 46 54 46H60Q120 46 136 53Q137 53 138 54Q143 56 149 77T198 273Q210 318 216 344Q286 624 286 626Q284 630 284 631Q274 637 213 637H193Q184 643 189 662Q193 677 195 680T209 683H213Q285 681 359 681Q481 681 487 683H497Q504 676 504 672T501 655T494 639Q491 637 471 637Q440 637 407 634Q393 631 388 623Q381 609 337 432Q326 385 315 341Q245 65 245 59Q245 52 255 50T307 46H339Q345 38 345 37T342 19Q338 6 332 0H316Q279 2 179 2Q143 2 113 2T65 2T43 1Z"></path>
<path stroke-width="10" id="E1-MJMAIN-28" d="M94 250Q94 319 104 381T127 488T164 576T202 643T244 695T277 729T302 750H315H319Q333 750 333 741Q333 738 316 720T275 667T226 581T184 443T167 250T184 58T225 -81T274 -167T316 -220T333 -241Q333 -250 318 -250H315H302L274 -226Q180 -141 137 -14T94 250Z"></path>
<path stroke-width="10" id="E1-MJMATHI-58" d="M42 0H40Q26 0 26 11Q26 15 29 27Q33 41 36 43T55 46Q141 49 190 98Q200 108 306 224T411 342Q302 620 297 625Q288 636 234 637H206Q200 643 200 645T202 664Q206 677 212 683H226Q260 681 347 681Q380 681 408 681T453 682T473 682Q490 682 490 671Q490 670 488 658Q484 643 481 640T465 637Q434 634 411 620L488 426L541 485Q646 598 646 610Q646 628 622 635Q617 635 609 637Q594 637 594 648Q594 650 596 664Q600 677 606 683H618Q619 683 643 683T697 681T738 680Q828 680 837 683H845Q852 676 852 672Q850 647 840 637H824Q790 636 763 628T722 611T698 593L687 584Q687 585 592 480L505 384Q505 383 536 304T601 142T638 56Q648 47 699 46Q734 46 734 37Q734 35 732 23Q728 7 725 4T711 1Q708 1 678 1T589 2Q528 2 496 2T461 1Q444 1 444 10Q444 11 446 25Q448 35 450 39T455 44T464 46T480 47T506 54Q523 62 523 64Q522 64 476 181L429 299Q241 95 236 84Q232 76 232 72Q232 53 261 47Q262 47 267 47T273 46Q276 46 277 46T280 45T283 42T284 35Q284 26 282 19Q279 6 276 4T261 1Q258 1 243 1T201 2T142 2Q64 2 42 0Z"></path>
<path stroke-width="10" id="E1-MJMAIN-3B" d="M78 370Q78 394 95 412T138 430Q162 430 180 414T199 371Q199 346 182 328T139 310T96 327T78 370ZM78 60Q78 85 94 103T137 121Q202 121 202 8Q202 -44 183 -94T144 -169T118 -194Q115 -194 106 -186T95 -174Q94 -171 107 -155T137 -107T160 -38Q161 -32 162 -22T165 -4T165 4Q165 5 161 4T142 0Q110 0 94 18T78 60Z"></path>
<path stroke-width="10" id="E1-MJMATHI-59" d="M66 637Q54 637 49 637T39 638T32 641T30 647T33 664T42 682Q44 683 56 683Q104 680 165 680Q288 680 306 683H316Q322 677 322 674T320 656Q316 643 310 637H298Q242 637 242 624Q242 619 292 477T343 333L346 336Q350 340 358 349T379 373T411 410T454 461Q546 568 561 587T577 618Q577 634 545 637Q528 637 528 647Q528 649 530 661Q533 676 535 679T549 683Q551 683 578 682T657 680Q684 680 713 681T746 682Q763 682 763 673Q763 669 760 657T755 643Q753 637 734 637Q662 632 617 587Q608 578 477 424L348 273L322 169Q295 62 295 57Q295 46 363 46Q379 46 384 45T390 35Q390 33 388 23Q384 6 382 4T366 1Q361 1 324 1T232 2Q170 2 138 2T102 1Q84 1 84 9Q84 14 87 24Q88 27 89 30T90 35T91 39T93 42T96 44T101 45T107 45T116 46T129 46Q168 47 180 50T198 63Q201 68 227 171L252 274L129 623Q128 624 127 625T125 627T122 629T118 631T113 633T105 634T96 635T83 636T66 637Z"></path>
<path stroke-width="10" id="E1-MJMAIN-29" d="M60 749L64 750Q69 750 74 750H86L114 726Q208 641 251 514T294 250Q294 182 284 119T261 12T224 -76T186 -143T145 -194T113 -227T90 -246Q87 -249 86 -250H74Q66 -250 63 -250T58 -247T55 -238Q56 -237 66 -225Q221 -64 221 250T66 725Q56 737 55 738Q55 746 60 749Z"></path>
<path stroke-width="10" id="E1-MJMAIN-3D" d="M56 347Q56 360 70 367H707Q722 359 722 347Q722 336 708 328L390 327H72Q56 332 56 347ZM56 153Q56 168 72 173H708Q722 163 722 153Q722 140 707 133H70Q56 140 56 153Z"></path>
<path stroke-width="10" id="E1-MJAMS-45" d="M12 666Q12 675 24 683H582Q590 680 593 672V588Q593 514 591 502T575 490Q567 490 563 495T555 517Q552 556 517 590Q486 623 445 634T340 648H282Q266 636 264 620T260 492V370H277Q329 375 358 391T404 439Q420 480 420 506Q420 529 436 529Q445 529 451 521Q455 517 455 361Q455 333 455 298T456 253Q456 217 453 207T437 197Q420 196 420 217Q420 240 406 270Q377 328 284 335H260V201Q261 174 261 134Q262 73 264 61T278 38Q281 36 282 35H331Q400 35 449 50Q571 93 602 179Q605 203 622 203Q629 203 634 197T640 183Q638 181 624 95T604 3L600 -1H24Q12 5 12 16Q12 35 51 35Q92 38 97 52Q102 60 102 341T97 632Q91 645 51 648Q12 648 12 666ZM137 341Q137 131 136 89T130 37Q129 36 129 35H235Q233 41 231 48L226 61V623L231 635L235 648H129Q132 641 133 638T135 603T137 517T137 341ZM557 603V648H504Q504 646 515 639Q527 634 542 619L557 603ZM420 317V397L406 383Q394 370 380 363L366 355Q373 350 382 346Q400 333 409 328L420 317ZM582 61L586 88Q585 88 582 83Q557 61 526 46L511 37L542 35H577Q577 36 578 39T580 49T582 61Z"></path>
<path stroke-width="10" id="E1-MJMAIN-2C" d="M78 35T78 60T94 103T137 121Q165 121 187 96T210 8Q210 -27 201 -60T180 -117T154 -158T130 -185T117 -194Q113 -194 104 -185T95 -172Q95 -168 106 -156T131 -126T157 -76T173 -3V9L172 8Q170 7 167 6T161 3T152 1T140 0Q113 0 96 17Z"></path>
<path stroke-width="10" id="E1-MJMAIN-5B" d="M118 -250V750H255V710H158V-210H255V-250H118Z"></path>
<path stroke-width="10" id="E1-MJMATHI-53" d="M308 24Q367 24 416 76T466 197Q466 260 414 284Q308 311 278 321T236 341Q176 383 176 462Q176 523 208 573T273 648Q302 673 343 688T407 704H418H425Q521 704 564 640Q565 640 577 653T603 682T623 704Q624 704 627 704T632 705Q645 705 645 698T617 577T585 459T569 456Q549 456 549 465Q549 471 550 475Q550 478 551 494T553 520Q553 554 544 579T526 616T501 641Q465 662 419 662Q362 662 313 616T263 510Q263 480 278 458T319 427Q323 425 389 408T456 390Q490 379 522 342T554 242Q554 216 546 186Q541 164 528 137T492 78T426 18T332 -20Q320 -22 298 -22Q199 -22 144 33L134 44L106 13Q83 -14 78 -18T65 -22Q52 -22 52 -14Q52 -11 110 221Q112 227 130 227H143Q149 221 149 216Q149 214 148 207T144 186T142 153Q144 114 160 87T203 47T255 29T308 24Z"></path>
<path stroke-width="10" id="E1-MJMATHI-78" d="M52 289Q59 331 106 386T222 442Q257 442 286 424T329 379Q371 442 430 442Q467 442 494 420T522 361Q522 332 508 314T481 292T458 288Q439 288 427 299T415 328Q415 374 465 391Q454 404 425 404Q412 404 406 402Q368 386 350 336Q290 115 290 78Q290 50 306 38T341 26Q378 26 414 59T463 140Q466 150 469 151T485 153H489Q504 153 504 145Q504 144 502 134Q486 77 440 33T333 -11Q263 -11 227 52Q186 -10 133 -10H127Q78 -10 57 16T35 71Q35 103 54 123T99 143Q142 143 142 101Q142 81 130 66T107 46T94 41L91 40Q91 39 97 36T113 29T132 26Q168 26 194 71Q203 87 217 139T245 247T261 313Q266 340 266 352Q266 380 251 392T217 404Q177 404 142 372T93 290Q91 281 88 280T72 278H58Q52 284 52 289Z"></path>
<path stroke-width="10" id="E1-MJMATHI-79" d="M21 287Q21 301 36 335T84 406T158 442Q199 442 224 419T250 355Q248 336 247 334Q247 331 231 288T198 191T182 105Q182 62 196 45T238 27Q261 27 281 38T312 61T339 94Q339 95 344 114T358 173T377 247Q415 397 419 404Q432 431 462 431Q475 431 483 424T494 412T496 403Q496 390 447 193T391 -23Q363 -106 294 -155T156 -205Q111 -205 77 -183T43 -117Q43 -95 50 -80T69 -58T89 -48T106 -45Q150 -45 150 -87Q150 -107 138 -122T115 -142T102 -147L99 -148Q101 -153 118 -160T152 -167H160Q177 -167 186 -165Q219 -156 247 -127T290 -65T313 -9T321 21L315 17Q309 13 296 6T270 -6Q250 -11 231 -11Q185 -11 150 11T104 82Q103 89 103 113Q103 170 138 262T173 379Q173 380 173 381Q173 390 173 393T169 400T158 404H154Q131 404 112 385T82 344T65 302T57 280Q55 278 41 278H27Q21 284 21 287Z"></path>
<path stroke-width="10" id="E1-MJMAIN-5D" d="M22 710V750H159V-250H22V-210H119V710H22Z"></path>
<path stroke-width="10" id="E1-MJSZ2-2211" d="M60 948Q63 950 665 950H1267L1325 815Q1384 677 1388 669H1348L1341 683Q1320 724 1285 761Q1235 809 1174 838T1033 881T882 898T699 902H574H543H251L259 891Q722 258 724 252Q725 250 724 246Q721 243 460 -56L196 -356Q196 -357 407 -357Q459 -357 548 -357T676 -358Q812 -358 896 -353T1063 -332T1204 -283T1307 -196Q1328 -170 1348 -124H1388Q1388 -125 1381 -145T1356 -210T1325 -294L1267 -449L666 -450Q64 -450 61 -448Q55 -446 55 -439Q55 -437 57 -433L590 177Q590 178 557 222T452 366T322 544L56 909L55 924Q55 945 60 948Z"></path>
<path stroke-width="10" id="E1-MJMATHI-70" d="M23 287Q24 290 25 295T30 317T40 348T55 381T75 411T101 433T134 442Q209 442 230 378L240 387Q302 442 358 442Q423 442 460 395T497 281Q497 173 421 82T249 -10Q227 -10 210 -4Q199 1 187 11T168 28L161 36Q160 35 139 -51T118 -138Q118 -144 126 -145T163 -148H188Q194 -155 194 -157T191 -175Q188 -187 185 -190T172 -194Q170 -194 161 -194T127 -193T65 -192Q-5 -192 -24 -194H-32Q-39 -187 -39 -183Q-37 -156 -26 -148H-6Q28 -147 33 -136Q36 -130 94 103T155 350Q156 355 156 364Q156 405 131 405Q109 405 94 377T71 316T59 280Q57 278 43 278H29Q23 284 23 287ZM178 102Q200 26 252 26Q282 26 310 49T356 107Q374 141 392 215T411 325V331Q411 405 350 405Q339 405 328 402T306 393T286 380T269 365T254 350T243 336T235 326L232 322Q232 321 229 308T218 264T204 212Q178 106 178 102Z"></path>
<path stroke-width="10" id="E1-MJMAIN-6C" d="M42 46H56Q95 46 103 60V68Q103 77 103 91T103 124T104 167T104 217T104 272T104 329Q104 366 104 407T104 482T104 542T103 586T103 603Q100 622 89 628T44 637H26V660Q26 683 28 683L38 684Q48 685 67 686T104 688Q121 689 141 690T171 693T182 694H185V379Q185 62 186 60Q190 52 198 49Q219 46 247 46H263V0H255L232 1Q209 2 183 2T145 3T107 3T57 1L34 0H26V46H42Z"></path>
<path stroke-width="10" id="E1-MJMAIN-6F" d="M28 214Q28 309 93 378T250 448Q340 448 405 380T471 215Q471 120 407 55T250 -10Q153 -10 91 57T28 214ZM250 30Q372 30 372 193V225V250Q372 272 371 288T364 326T348 362T317 390T268 410Q263 411 252 411Q222 411 195 399Q152 377 139 338T126 246V226Q126 130 145 91Q177 30 250 30Z"></path>
<path stroke-width="10" id="E1-MJMAIN-67" d="M329 409Q373 453 429 453Q459 453 472 434T485 396Q485 382 476 371T449 360Q416 360 412 390Q410 404 415 411Q415 412 416 414V415Q388 412 363 393Q355 388 355 386Q355 385 359 381T368 369T379 351T388 325T392 292Q392 230 343 187T222 143Q172 143 123 171Q112 153 112 133Q112 98 138 81Q147 75 155 75T227 73Q311 72 335 67Q396 58 431 26Q470 -13 470 -72Q470 -139 392 -175Q332 -206 250 -206Q167 -206 107 -175Q29 -140 29 -75Q29 -39 50 -15T92 18L103 24Q67 55 67 108Q67 155 96 193Q52 237 52 292Q52 355 102 398T223 442Q274 442 318 416L329 409ZM299 343Q294 371 273 387T221 404Q192 404 171 388T145 343Q142 326 142 292Q142 248 149 227T179 192Q196 182 222 182Q244 182 260 189T283 207T294 227T299 242Q302 258 302 292T299 343ZM403 -75Q403 -50 389 -34T348 -11T299 -2T245 0H218Q151 0 138 -6Q118 -15 107 -34T95 -74Q95 -84 101 -97T122 -127T170 -155T250 -167Q319 -167 361 -139T403 -75Z"></path>
</defs>
<g stroke="currentColor" fill="currentColor" stroke-width="0" transform="matrix(1 0 0 -1 0 0)">
 <use xlink:href="#E1-MJMATHI-49" x="0" y="0"></use>
 <use xlink:href="#E1-MJMAIN-28" x="509" y="0"></use>
 <use xlink:href="#E1-MJMATHI-58" x="903" y="0"></use>
 <use xlink:href="#E1-MJMAIN-3B" x="1760" y="0"></use>
 <use xlink:href="#E1-MJMATHI-59" x="2209" y="0"></use>
 <use xlink:href="#E1-MJMAIN-29" x="2977" y="0"></use>
 <use xlink:href="#E1-MJMAIN-3D" x="3649" y="0"></use>
<g transform="translate(4710,0)">
 <use xlink:href="#E1-MJAMS-45" x="0" y="0"></use>
<g transform="translate(672,-150)">
 <use transform="scale(0.707)" xlink:href="#E1-MJMATHI-58" x="0" y="0"></use>
 <use transform="scale(0.707)" xlink:href="#E1-MJMAIN-2C" x="857" y="0"></use>
 <use transform="scale(0.707)" xlink:href="#E1-MJMATHI-59" x="1140" y="0"></use>
</g>
</g>
 <use xlink:href="#E1-MJMAIN-5B" x="6831" y="0"></use>
 <use xlink:href="#E1-MJMATHI-53" x="7114" y="0"></use>
 <use xlink:href="#E1-MJMATHI-49" x="7764" y="0"></use>
 <use xlink:href="#E1-MJMAIN-28" x="8273" y="0"></use>
 <use xlink:href="#E1-MJMATHI-78" x="8667" y="0"></use>
 <use xlink:href="#E1-MJMAIN-2C" x="9244" y="0"></use>
 <use xlink:href="#E1-MJMATHI-79" x="9694" y="0"></use>
 <use xlink:href="#E1-MJMAIN-29" x="10196" y="0"></use>
 <use xlink:href="#E1-MJMAIN-5D" x="10590" y="0"></use>
 <use xlink:href="#E1-MJMAIN-3D" x="11150" y="0"></use>
<g transform="translate(12211,0)">
 <use xlink:href="#E1-MJSZ2-2211" x="0" y="0"></use>
<g transform="translate(242,-1060)">
 <use transform="scale(0.707)" xlink:href="#E1-MJMATHI-78" x="0" y="0"></use>
 <use transform="scale(0.707)" xlink:href="#E1-MJMAIN-2C" x="577" y="0"></use>
 <use transform="scale(0.707)" xlink:href="#E1-MJMATHI-79" x="860" y="0"></use>
</g>
</g>
 <use xlink:href="#E1-MJMATHI-70" x="13827" y="0"></use>
 <use xlink:href="#E1-MJMAIN-28" x="14335" y="0"></use>
 <use xlink:href="#E1-MJMATHI-78" x="14729" y="0"></use>
 <use xlink:href="#E1-MJMAIN-2C" x="15306" y="0"></use>
 <use xlink:href="#E1-MJMATHI-79" x="15755" y="0"></use>
 <use xlink:href="#E1-MJMAIN-29" x="16257" y="0"></use>
<g transform="translate(16818,0)">
 <use xlink:href="#E1-MJMAIN-6C"></use>
 <use xlink:href="#E1-MJMAIN-6F" x="283" y="0"></use>
 <use xlink:href="#E1-MJMAIN-67" x="788" y="0"></use>
</g>
<g transform="translate(18278,0)">
<g transform="translate(120,0)">
<rect stroke="none" width="3957" height="60" x="0" y="220"></rect>
<g transform="translate(566,779)">
 <use xlink:href="#E1-MJMATHI-70" x="0" y="0"></use>
 <use xlink:href="#E1-MJMAIN-28" x="508" y="0"></use>
 <use xlink:href="#E1-MJMATHI-78" x="902" y="0"></use>
 <use xlink:href="#E1-MJMAIN-2C" x="1479" y="0"></use>
 <use xlink:href="#E1-MJMATHI-79" x="1928" y="0"></use>
 <use xlink:href="#E1-MJMAIN-29" x="2430" y="0"></use>
</g>
<g transform="translate(60,-780)">
 <use xlink:href="#E1-MJMATHI-70" x="0" y="0"></use>
 <use xlink:href="#E1-MJMAIN-28" x="508" y="0"></use>
 <use xlink:href="#E1-MJMATHI-78" x="902" y="0"></use>
 <use xlink:href="#E1-MJMAIN-29" x="1479" y="0"></use>
 <use xlink:href="#E1-MJMATHI-70" x="2039" y="0"></use>
 <use xlink:href="#E1-MJMAIN-28" x="2547" y="0"></use>
 <use xlink:href="#E1-MJMATHI-79" x="2941" y="0"></use>
 <use xlink:href="#E1-MJMAIN-29" x="3443" y="0"></use>
</g>
</g>
</g>
</g>
</svg>